<svg width="23" height="29" viewBox="0 0 23 29" fill="none" xmlns="http://www.w3.org/2000/svg">
<path d="M0.647949 11.8018C0.647949 5.69227 5.59998 0.740234 11.7087 0.740234C17.8182 0.740234 22.7702 5.69227 22.7702 11.8018C22.7702 12.8952 22.6092 13.9506 22.314 14.9505C20.7392 21.3198 11.6593 28.4439 11.6593 28.4439C11.6593 28.4439 1.40114 20.4003 0.797722 13.7627L0.82456 13.7575C0.710283 13.1238 0.647949 12.4702 0.647949 11.8018ZM11.558 14.2657C14.0574 14.2657 16.0832 12.239 16.0832 9.73961C16.0832 7.24022 14.0574 5.21438 11.558 5.21438C9.05949 5.21438 7.03365 7.24022 7.03365 9.73961C7.03365 12.239 9.05949 14.2657 11.558 14.2657Z" fill="#4B9200"/>
</svg>
