<svg width="27" height="33" viewBox="0 0 27 33" fill="none" xmlns="http://www.w3.org/2000/svg">
<path d="M25.3365 17.1106L25.3333 17.1213L25.3307 17.1321C24.4554 20.6722 21.4637 24.4865 18.6192 27.4583C17.2071 28.9335 15.8505 30.1818 14.8467 31.0613C14.345 31.5009 13.9321 31.8478 13.6452 32.0844C13.596 32.1249 13.5505 32.1622 13.5089 32.1962C13.4521 32.1498 13.388 32.0972 13.3172 32.0386C12.9955 31.7726 12.5341 31.3833 11.9778 30.8919C10.8645 29.9086 9.37418 28.5192 7.86367 26.8939C6.35183 25.2671 4.82829 23.4131 3.64232 21.5008C2.55052 19.7404 1.76361 17.9604 1.51471 16.2826L1.57371 16.2712L1.4861 15.7854C1.35913 15.0813 1.29004 14.356 1.29004 13.6151C1.29004 6.83425 6.78621 1.33813 13.566 1.33813C20.3469 1.33813 25.843 6.83428 25.843 13.6151C25.843 14.8287 25.6644 16.0001 25.3365 17.1106ZM13.392 16.9611C16.5553 16.9611 19.119 14.3962 19.119 11.2331C19.119 8.06999 16.5552 5.50613 13.392 5.50613C10.2298 5.50613 7.66604 8.07006 7.66604 11.2331C7.66604 14.3961 10.2297 16.9611 13.392 16.9611Z" fill="#FB8736" stroke="black"/>
</svg>
